<?xml version="1.0" standalone="no"?>
<!DOCTYPE svg PUBLIC "-//W3C//DTD SVG 20010904//EN"
 "http://www.w3.org/TR/2001/REC-SVG-20010904/DTD/svg10.dtd">
<svg version="1.0" xmlns="http://www.w3.org/2000/svg"
 width="1000.000000pt" height="1000.000000pt" viewBox="0 0 1000.000000 1000.000000"
 preserveAspectRatio="xMidYMid meet">
<metadata>
Created by potrace 1.11, written by Peter Selinger 2001-2013
</metadata>
<g transform="translate(0.000000,1000.000000) scale(0.100000,-0.100000)"
fill="#000000" stroke="none">
<path d="M4960 8105 c-29 -22 -120 -142 -117 -155 1 -3 -7 -20 -16 -38 l-18
-33 -38 31 c-22 16 -44 30 -50 30 -6 0 -11 4 -11 8 0 8 -84 49 -86 41 0 -2 -9
2 -18 10 -21 18 -82 22 -113 8 -28 -13 -53 -82 -34 -97 8 -7 112 -212 109
-215 -2 -2 -23 -5 -48 -8 -25 -3 -67 -11 -95 -17 -27 -6 -57 -13 -65 -15 -60
-13 -187 -49 -250 -70 -41 -15 -82 -28 -90 -30 -23 -6 -178 -70 -235 -98 -27
-13 -60 -27 -72 -31 -13 -4 -23 -12 -23 -18 0 -6 -3 -8 -6 -5 -4 4 -19 -2 -34
-13 -16 -11 -31 -20 -35 -20 -3 0 -31 -16 -61 -35 -30 -19 -57 -35 -60 -35 -3
0 -20 -10 -37 -23 -18 -12 -39 -27 -48 -32 -54 -33 -156 -109 -238 -178 -97
-81 -311 -292 -366 -362 -16 -20 -40 -48 -52 -62 -13 -13 -23 -27 -23 -31 0
-4 -10 -18 -23 -32 -25 -28 -37 -45 -102 -143 -25 -37 -45 -72 -45 -77 0 -6
-4 -10 -8 -10 -5 0 -19 -21 -32 -47 -13 -27 -26 -50 -29 -53 -6 -5 -74 -141
-119 -240 -37 -78 -80 -199 -74 -204 3 -3 0 -6 -6 -6 -7 0 -12 -9 -12 -20 0
-38 -27 -74 -96 -130 -140 -112 -170 -142 -190 -188 -27 -61 1 -116 73 -146
24 -10 43 -21 43 -24 0 -4 -9 -20 -20 -37 -27 -39 -138 -269 -146 -301 -3 -13
-10 -24 -16 -24 -5 0 -7 -4 -3 -9 3 -5 1 -12 -5 -16 -6 -4 -8 -11 -5 -16 4 -5
1 -9 -5 -9 -6 0 -9 -4 -6 -8 3 -5 -1 -19 -7 -33 -48 -93 -187 -605 -171 -631
3 -4 2 -14 -3 -20 -8 -14 -9 -20 -18 -93 -3 -27 -8 -68 -11 -90 -3 -22 -7 -76
-9 -120 -2 -44 -5 -80 -5 -80 -6 0 -4 -268 2 -271 5 -3 4 -13 -2 -23 -5 -10
-7 -21 -4 -24 3 -3 7 -37 9 -75 4 -76 13 -178 20 -213 3 -13 7 -41 10 -64 10
-67 34 -192 48 -250 32 -125 104 -361 123 -396 8 -16 12 -29 9 -29 -3 0 0 -10
7 -23 7 -12 13 -24 13 -27 2 -7 22 -56 42 -100 31 -71 124 -257 153 -305 17
-27 35 -60 40 -72 5 -13 14 -23 20 -23 5 0 10 -9 10 -19 0 -11 3 -21 8 -23 4
-2 25 -30 46 -63 42 -64 158 -220 200 -270 14 -16 43 -50 63 -74 84 -98 307
-314 393 -381 25 -19 59 -46 76 -60 16 -14 44 -36 62 -49 17 -13 34 -31 37
-41 3 -9 18 -23 33 -31 15 -8 29 -17 32 -20 11 -13 189 -124 275 -171 56 -31
272 -138 278 -138 3 0 26 -10 53 -22 27 -12 51 -23 54 -23 14 -4 47 -18 63
-26 10 -5 22 -7 27 -4 4 3 10 2 12 -3 3 -7 189 -68 236 -77 12 -2 26 -6 30 -9
9 -5 9 -5 151 -36 91 -19 195 -38 256 -46 17 -2 46 -5 65 -8 169 -23 629 -23
733 -1 12 2 45 7 72 10 130 15 277 45 445 92 69 19 130 36 135 38 6 1 24 8 40
14 17 7 59 22 95 33 36 11 67 23 70 27 3 3 23 12 45 20 59 21 289 134 375 186
41 24 87 50 103 56 15 6 27 14 27 17 0 4 29 25 65 47 36 22 64 44 62 50 -3 9
34 45 47 45 3 0 14 8 24 17 10 10 31 27 46 38 28 19 51 38 167 135 126 105
450 454 468 502 2 6 11 19 20 29 27 30 37 43 77 105 22 32 42 60 47 62 4 2 7
8 7 14 0 5 10 24 23 41 12 18 27 41 33 52 6 11 23 43 38 70 44 77 126 234 127
243 1 4 15 36 31 72 16 36 31 70 32 75 3 9 18 49 33 85 3 8 7 20 9 25 1 6 16
53 34 105 27 83 53 171 65 220 2 8 11 47 20 85 17 73 20 87 29 145 3 19 8 46
10 60 3 14 7 45 10 70 3 25 8 63 11 85 3 22 7 71 9 108 2 37 6 71 9 74 4 3 2
14 -4 24 -5 11 -6 19 -2 19 10 0 11 236 1 245 -4 4 -3 17 2 30 5 13 6 26 3 29
-4 3 -7 39 -9 78 -2 40 -5 89 -7 108 -3 19 -8 58 -11 85 -7 57 -14 99 -21 135
-3 14 -12 60 -20 103 -18 92 -50 222 -72 286 -8 25 -17 51 -18 56 -3 15 -16
48 -24 65 -4 8 -7 23 -5 33 1 9 -2 17 -6 17 -5 0 -12 16 -16 35 -3 19 -10 35
-15 35 -5 0 -8 3 -6 8 1 4 -5 25 -15 47 -25 61 -31 79 -30 88 1 4 -3 7 -8 7
-6 0 -10 5 -10 11 0 42 -259 494 -335 586 -5 7 -15 18 -21 25 -41 50 -101 199
-88 220 3 4 1 8 -4 8 -5 0 -15 19 -22 43 -8 23 -17 47 -22 53 -4 6 -9 20 -11
32 -2 12 -6 25 -10 28 -8 8 21 44 35 44 18 0 285 281 317 334 70 117 45 193
-67 213 -36 6 -42 5 -147 -1 -49 -4 -127 -8 -173 -10 -46 -2 -86 -6 -89 -9 -3
-3 -15 -2 -28 3 -14 5 -26 5 -33 -2 -11 -11 -58 31 -97 86 -66 94 -344 370
-438 435 -12 8 -31 24 -42 34 -24 22 -254 176 -310 208 -108 61 -264 137 -269
132 -3 -4 -6 -1 -6 5 0 7 -3 11 -7 10 -5 -1 -21 4 -38 11 -16 8 -41 18 -55 23
-14 6 -33 14 -42 19 -10 5 -26 9 -37 9 -11 0 -21 4 -23 8 -2 6 -93 37 -168 57
-111 30 -213 55 -244 59 -21 4 -41 8 -45 10 -8 5 -129 20 -168 21 -18 0 -33 2
-33 5 0 3 -15 5 -32 4 -18 0 -37 2 -42 4 -4 3 -32 5 -62 6 -29 1 -56 5 -59 8
-4 3 -8 64 -11 135 -2 70 -6 150 -9 177 -9 83 -68 110 -135 61z"/>
</g>
</svg>
